<?xml version="1.0" standalone="no"?>
<!DOCTYPE svg PUBLIC "-//W3C//DTD SVG 20010904//EN"
 "http://www.w3.org/TR/2001/REC-SVG-20010904/DTD/svg10.dtd">
<svg version="1.0" xmlns="http://www.w3.org/2000/svg"
 width="2400.000000pt" height="1080.000000pt" viewBox="0 0 2400.000000 1080.000000"
 preserveAspectRatio="xMidYMid meet">
<metadata>
Created by potrace 1.16, written by Peter Selinger 2001-2019
</metadata>
<g transform="translate(0.000000,1080.000000) scale(0.100000,-0.100000)"
fill="#000000" stroke="none">
<path d="M4020 9900 c-8 -4 -51 -25 -95 -46 -44 -22 -82 -42 -85 -45 -3 -4
-16 -10 -30 -14 -14 -4 -36 -15 -50 -25 -14 -10 -35 -20 -47 -24 -12 -4 -48
-30 -80 -59 -33 -29 -71 -61 -86 -72 -53 -38 -127 -181 -127 -243 0 -38 2 -43
15 -32 8 7 15 19 15 26 0 7 11 21 24 30 14 8 27 23 29 32 3 9 5 4 6 -12 1 -23
4 -27 19 -21 96 39 95 39 183 22 239 -46 237 -46 292 -100 36 -36 67 -55 111
-70 74 -25 128 -58 121 -75 -2 -7 10 -26 28 -43 17 -17 32 -41 32 -52 0 -14 7
-23 20 -25 11 -2 30 -13 42 -24 12 -11 31 -18 45 -16 33 4 67 78 68 145 0 42
6 59 33 95 37 48 55 55 98 38 32 -14 40 -33 12 -29 -33 5 -70 -11 -87 -36 -16
-24 -14 -45 2 -45 4 0 17 16 30 35 18 29 28 35 56 35 27 0 41 -7 64 -36 43
-52 55 -100 41 -166 -19 -88 -55 -145 -111 -174 -25 -13 -32 -13 -57 1 -34 17
-40 12 -39 -33 1 -42 15 -51 28 -18 11 31 13 31 64 3 44 -25 47 -28 78 -116
16 -44 38 -80 71 -115 26 -28 56 -60 66 -71 10 -11 47 -42 82 -70 87 -69 158
-135 171 -159 23 -42 -2 -138 -73 -277 -25 -50 -51 -135 -96 -309 -3 -14 -27
-50 -52 -82 -81 -101 -126 -165 -185 -265 -17 -28 -88 -136 -157 -240 -138
-205 -220 -361 -243 -463 -8 -36 -20 -110 -26 -165 -7 -55 -14 -104 -17 -109
-6 -9 -299 0 -314 10 -14 8 -87 148 -118 224 -39 98 -51 191 -40 310 17 187
90 374 200 510 139 171 279 325 316 348 67 42 78 66 75 158 -2 70 0 84 19 108
18 24 21 36 16 87 -4 49 -1 71 19 119 13 33 24 70 24 83 0 13 5 28 11 34 8 8
8 13 0 17 -6 4 -11 0 -11 -9 0 -9 -4 -13 -10 -10 -5 3 -10 0 -10 -8 0 -8 -10
-17 -22 -20 -16 -5 -19 -9 -10 -19 8 -10 -2 -25 -43 -66 -29 -28 -58 -52 -64
-52 -6 0 -25 -15 -41 -32 -29 -32 -31 -32 -45 -14 -12 16 -16 17 -29 4 -16
-17 -133 -76 -156 -79 -37 -5 -71 14 -90 52 -24 47 -25 62 -4 95 16 23 16 26
-2 39 -21 16 -29 17 -61 9 -13 -4 -23 -13 -23 -20 0 -22 -17 -16 -24 9 -8 32
-8 37 8 37 8 0 16 6 19 13 3 8 31 23 64 35 32 12 67 29 78 37 19 15 18 16 -15
11 -19 -3 -64 -9 -100 -12 -36 -3 -75 -10 -87 -16 -28 -14 -29 -13 -44 47 -16
63 -18 65 -70 76 -86 20 -109 56 -75 121 17 33 40 210 31 238 -7 23 -66 64
-105 73 -14 3 -35 9 -47 12 -28 9 -28 0 -6 -51 9 -22 15 -51 14 -65 -2 -18 6
-33 23 -47 14 -11 26 -30 26 -41 0 -30 -31 -164 -40 -176 -4 -5 -10 -35 -11
-65 -3 -33 -10 -60 -19 -66 -12 -10 -12 -16 -2 -39 9 -19 9 -31 2 -40 -6 -7
-12 -34 -14 -61 -3 -27 -9 -65 -15 -84 -15 -48 -13 -127 4 -175 8 -22 15 -55
15 -72 0 -18 4 -33 8 -33 9 0 1 -80 -13 -132 -4 -15 -14 -29 -22 -32 -28 -11
4 -34 80 -57 86 -26 147 -55 147 -71 0 -7 -13 -9 -35 -5 -19 3 -37 2 -40 -2
-8 -15 -59 -20 -105 -11 -48 9 -93 3 -88 -11 2 -5 32 -28 68 -51 40 -27 71
-55 80 -75 8 -18 23 -38 32 -45 18 -14 63 -96 56 -103 -5 -6 -88 34 -111 53
-23 20 -30 11 -22 -27 4 -20 11 -28 21 -24 9 3 19 -7 29 -31 8 -19 15 -40 15
-45 0 -17 -50 8 -102 51 -28 23 -75 47 -121 62 -70 23 -124 25 -111 5 3 -5 16
-6 30 -3 16 4 31 1 42 -9 9 -9 29 -18 44 -22 14 -4 34 -15 44 -26 9 -10 27
-19 39 -19 21 0 55 -28 55 -44 0 -4 -57 -5 -127 -1 -128 6 -128 6 -183 -23
-66 -34 -109 -103 -102 -162 2 -19 5 -54 6 -77 1 -23 5 -45 8 -49 8 -8 -1 -34
-20 -56 -14 -17 -13 -18 13 -18 25 0 27 -2 22 -30 -4 -17 -2 -30 3 -30 6 0 15
-11 20 -25 5 -14 14 -25 20 -25 6 0 27 -26 47 -57 20 -32 40 -59 45 -61 4 -2
8 -16 8 -32 0 -36 10 -61 20 -55 5 3 12 -9 15 -27 4 -18 12 -36 17 -39 5 -3 0
-40 -13 -84 -37 -135 -16 -255 55 -314 20 -17 20 -4 1 42 -16 40 -20 117 -6
117 5 0 12 -12 15 -27 9 -37 57 -133 67 -133 4 0 3 15 -3 33 -24 76 -27 111
-10 123 13 10 18 7 29 -13 7 -14 10 -35 7 -47 -6 -26 9 -97 32 -151 10 -22 18
-42 19 -45 3 -15 30 -57 44 -67 12 -8 16 -28 16 -71 0 -67 10 -89 21 -46 4 15
13 39 20 53 8 14 14 34 14 44 0 9 6 17 13 17 7 0 18 10 26 21 10 18 15 19 22
8 11 -18 12 -72 0 -84 -4 -6 -11 -26 -15 -45 -6 -32 -5 -33 7 -15 7 11 21 46
31 77 15 47 16 64 6 93 -6 19 -16 37 -21 40 -5 4 -4 15 2 28 7 11 12 35 11 51
-1 37 40 108 76 132 14 9 50 37 80 61 102 83 104 83 297 68 106 -8 209 -23
275 -39 260 -64 346 -76 589 -82 l164 -4 100 -93 c55 -50 124 -121 154 -156
49 -61 52 -67 46 -105 -3 -23 -14 -59 -24 -80 -11 -22 -19 -45 -19 -52 0 -6
-7 -17 -15 -24 -8 -6 -14 -15 -12 -18 3 -11 -54 -90 -69 -96 -21 -8 -38 -57
-23 -67 10 -6 10 -11 -1 -23 -7 -9 -13 -35 -13 -59 1 -23 -4 -50 -9 -60 -16
-30 -3 -30 44 -1 70 46 128 95 128 110 0 8 13 40 29 71 51 103 69 147 75 181
3 19 25 56 51 86 25 29 45 57 45 61 0 5 6 16 14 24 7 9 22 39 32 66 10 28 21
52 24 55 8 7 25 53 45 125 9 33 21 69 25 80 5 11 12 40 16 65 3 24 10 51 14
60 16 32 30 88 30 119 0 19 4 30 10 26 6 -3 10 0 10 7 0 17 -87 152 -101 156
-5 2 -9 8 -9 13 0 5 -20 39 -45 76 -25 37 -45 72 -45 79 0 7 -18 42 -40 78
-22 36 -40 71 -41 78 -2 22 -20 -56 -20 -81 1 -14 7 -28 14 -33 35 -21 57 -42
57 -54 0 -8 6 -14 13 -14 11 -1 26 -28 61 -111 17 -42 8 -64 -23 -54 -24 7
-29 -10 -6 -19 8 -3 15 -13 15 -22 0 -10 -5 -14 -15 -10 -19 7 -19 -4 -1 -29
12 -16 10 -22 -15 -46 -28 -27 -39 -46 -20 -34 17 10 24 -18 8 -30 -10 -7 -17
-22 -17 -33 0 -12 -8 -23 -20 -27 -23 -7 -25 -16 -9 -32 9 -9 8 -15 -3 -27
-11 -10 -14 -32 -12 -80 1 -39 -2 -66 -7 -66 -6 0 -7 -5 -4 -10 3 -6 -3 -23
-14 -39 -12 -16 -21 -34 -21 -40 0 -6 -5 -11 -11 -11 -6 0 -8 -9 -4 -20 4 -11
2 -20 -4 -20 -6 0 -11 -7 -11 -16 0 -8 -7 -22 -15 -30 -13 -13 -30 -2 -142 88
-70 57 -141 113 -158 125 l-30 21 -1 159 c-1 173 -16 281 -64 455 -16 59 -33
127 -36 150 -4 24 -13 68 -21 98 -56 213 -67 277 -79 435 -7 91 6 182 43 315
18 62 87 234 108 266 7 11 19 39 26 62 7 23 17 42 23 42 6 0 56 -20 112 -45
102 -46 228 -84 275 -85 19 0 28 6 33 23 8 31 8 92 -1 101 -11 10 -32 94 -38
146 -14 134 -42 222 -111 352 -8 15 -27 51 -42 80 -15 29 -36 62 -48 73 -11
11 -30 41 -43 67 -13 25 -51 75 -85 109 -34 35 -76 93 -94 129 -19 36 -42 74
-53 86 -10 11 -19 26 -19 32 0 7 -4 12 -8 12 -5 0 -17 18 -27 40 -10 22 -26
47 -36 56 -10 9 -28 35 -39 58 -57 118 -266 320 -387 376 -26 12 -56 26 -65
31 -10 5 -27 9 -38 9 -11 0 -20 5 -20 10 0 12 -358 13 -380 0z m-775 -2980 c4
-27 11 -52 16 -56 5 -3 9 -16 9 -28 0 -31 -52 -125 -58 -105 -3 8 -13 26 -23
41 -24 34 -24 48 1 48 21 0 27 15 10 25 -6 4 -18 1 -26 -6 -13 -11 -15 -8 -12
27 2 31 7 39 23 39 13 0 19 6 17 18 -3 16 16 46 30 47 3 0 9 -22 13 -50z"/>
<path d="M3735 9084 c-61 -32 -107 -69 -116 -92 -12 -30 4 -52 38 -52 13 0 41
-14 62 -31 49 -39 90 -46 119 -21 22 19 31 39 12 27 -6 -3 -7 1 -4 10 6 14 8
14 23 1 16 -14 21 -12 59 27 39 40 53 67 34 67 -4 0 -13 -5 -20 -12 -8 -8 -15
-8 -25 1 -8 6 -49 12 -92 12 l-77 1 32 33 c26 27 29 33 15 39 -22 8 -25 8 -60
-10z"/>
<path d="M6110 7662 c0 -7 11 -28 25 -46 14 -18 25 -36 25 -40 0 -5 9 -20 19
-35 11 -15 47 -88 81 -162 98 -216 174 -353 241 -432 50 -58 189 -333 189
-372 0 -8 5 -15 10 -15 6 0 10 -9 10 -20 0 -11 4 -20 8 -20 5 0 19 -39 31 -87
13 -49 29 -106 36 -128 28 -88 37 -152 37 -266 0 -185 -9 -206 -112 -260 -30
-16 -73 -41 -95 -54 -22 -13 -47 -27 -55 -31 -8 -4 -17 -10 -20 -14 -3 -3 -52
-46 -110 -95 -100 -85 -220 -202 -220 -213 0 -9 -69 -72 -80 -72 -5 0 -10 -3
-10 -7 0 -5 -12 -16 -28 -25 -15 -10 -47 -31 -72 -48 -25 -16 -54 -34 -65 -39
-44 -20 -131 -62 -145 -70 -41 -24 -152 -72 -206 -89 -82 -27 -174 -71 -200
-96 -12 -12 -45 -43 -74 -71 -28 -27 -59 -63 -67 -79 -16 -31 -53 -236 -53
-297 0 -20 -7 -53 -15 -72 -21 -52 -75 -78 -75 -37 0 23 -22 26 -40 5 -35 -42
-208 -113 -185 -75 3 6 15 10 26 10 10 0 20 6 20 13 1 6 3 27 5 45 2 17 0 32
-4 32 -4 0 -24 -18 -45 -40 -21 -23 -42 -38 -47 -35 -5 3 -14 -3 -20 -14 -6
-11 -25 -23 -45 -27 -42 -7 -45 -21 -9 -30 l27 -7 -24 -12 c-32 -17 -61 -4
-65 28 -1 15 2 29 7 32 11 8 12 45 1 45 -5 0 -17 -25 -27 -55 -11 -30 -23 -55
-27 -55 -4 0 -8 -6 -8 -14 0 -8 -14 -26 -31 -40 -34 -29 -32 -39 12 -61 27
-14 31 -14 67 8 20 14 43 32 51 41 9 10 29 16 60 16 31 1 59 9 86 25 37 23 49
25 171 25 71 0 134 4 140 9 5 6 29 11 54 13 43 3 46 6 72 53 15 28 28 59 28
70 0 11 6 29 13 40 8 11 19 40 26 65 15 55 35 84 54 77 15 -6 67 -105 67 -128
0 -8 4 -19 9 -24 5 -6 12 -38 14 -72 3 -34 8 -66 11 -71 3 -6 8 -41 10 -80 3
-38 8 -81 11 -95 4 -14 2 -34 -3 -44 -7 -13 -7 -49 2 -115 12 -92 11 -98 -7
-113 -16 -14 -17 -19 -6 -26 19 -11 19 -57 2 -93 -11 -20 -12 -31 -4 -39 15
-15 14 -44 -2 -50 -10 -4 -14 -31 -15 -98 -1 -61 -6 -96 -14 -102 -10 -7 -10
-10 0 -14 22 -9 13 -23 -15 -24 -17 -1 -21 -3 -10 -6 23 -6 23 -66 0 -89 -27
-27 -42 -61 -36 -83 3 -14 0 -23 -11 -27 -9 -3 -16 -15 -16 -25 0 -13 -5 -17
-17 -12 -13 5 -15 2 -9 -12 4 -11 0 -25 -10 -36 -9 -10 -13 -23 -9 -28 3 -6 0
-11 -8 -11 -9 0 -14 -10 -14 -26 0 -15 -7 -31 -16 -35 -10 -6 -14 -21 -13 -44
2 -23 -2 -38 -12 -44 -8 -4 -14 -20 -14 -35 0 -23 -4 -27 -23 -22 -18 5 -22 1
-22 -22 0 -15 -6 -40 -12 -56 -10 -24 -14 -26 -27 -15 -13 10 -16 9 -21 -9 -3
-12 -10 -22 -15 -22 -6 0 -8 -7 -5 -15 4 -8 2 -17 -4 -21 -6 -4 -6 -11 2 -20
8 -9 8 -14 1 -14 -15 0 -62 -52 -56 -62 3 -4 -2 -5 -10 -2 -11 4 -16 0 -16
-10 0 -9 -7 -19 -15 -22 -8 -4 -15 -13 -15 -20 0 -8 -7 -17 -15 -20 -8 -4 -12
-10 -9 -15 3 -5 -3 -12 -13 -16 -21 -7 -63 -43 -63 -54 0 -13 -46 -59 -59 -59
-6 0 -14 -7 -17 -15 -4 -10 -13 -13 -25 -10 -14 5 -19 1 -19 -14 0 -14 -6 -21
-20 -21 -12 0 -24 -9 -29 -22 -5 -13 -19 -33 -30 -45 -12 -12 -21 -27 -21 -33
0 -5 -6 -10 -14 -10 -8 0 -16 -7 -20 -15 -3 -9 -12 -12 -22 -8 -11 4 -15 3
-11 -5 15 -23 -43 -112 -72 -112 -13 0 -13 -2 -3 -9 11 -6 8 -14 -12 -35 -15
-17 -22 -34 -19 -43 5 -13 1 -15 -20 -9 -23 5 -27 3 -27 -17 0 -12 -9 -30 -20
-40 -19 -16 -25 -34 -21 -64 1 -7 -2 -13 -7 -13 -5 0 -17 -18 -27 -40 -12 -26
-23 -39 -32 -36 -8 4 -13 -3 -13 -19 0 -15 -7 -26 -20 -30 -11 -3 -20 -15 -20
-26 0 -10 -5 -19 -10 -19 -6 0 -15 -12 -20 -26 -6 -14 -19 -28 -30 -31 -11 -3
-20 -12 -20 -20 0 -7 -9 -32 -20 -54 -12 -22 -18 -44 -15 -49 6 -10 -22 -87
-40 -110 -7 -8 -11 -33 -10 -55 5 -71 17 -145 25 -145 4 0 17 -20 30 -45 13
-25 34 -56 47 -69 12 -13 30 -39 38 -59 8 -20 19 -38 25 -42 12 -8 72 -129 69
-141 -1 -5 3 -21 9 -36 10 -24 17 -28 52 -28 47 0 50 11 20 65 -11 20 -20 42
-20 50 0 8 -3 15 -8 15 -4 0 -16 17 -27 38 -22 41 -25 45 -57 85 -23 28 -23
29 -10 130 19 141 26 311 13 336 -14 26 1 54 72 133 31 35 70 81 87 103 42 56
40 53 100 121 63 69 101 114 168 199 26 33 90 102 143 155 52 52 124 131 159
175 36 44 82 100 103 125 37 44 42 50 62 82 6 9 25 37 43 62 17 26 32 50 32
54 0 4 9 14 20 22 11 8 20 18 20 22 0 5 14 27 30 50 17 22 30 47 30 55 0 7 3
13 8 13 4 0 22 31 40 69 19 39 40 75 48 82 8 6 14 18 14 26 0 8 7 29 16 46 30
57 33 64 40 103 3 22 10 44 14 49 11 14 19 71 30 201 11 124 -2 665 -19 774
-21 136 -35 200 -43 200 -4 0 -8 8 -8 17 0 20 -24 91 -59 176 -6 12 -13 38
-17 57 -3 19 -10 42 -15 52 -5 10 -13 26 -18 36 -5 10 -12 33 -16 52 -7 33
-11 42 -35 90 -12 22 -4 44 11 35 16 -11 47 5 52 27 4 13 11 19 21 15 8 -3 20
0 26 8 6 7 37 25 68 40 178 85 374 183 419 212 29 18 55 33 58 33 8 0 155 95
204 132 102 78 151 121 286 253 79 77 162 156 184 175 l40 35 1 197 c0 133 -4
198 -11 200 -6 2 -15 26 -20 53 -5 28 -13 59 -18 70 -5 11 -14 40 -21 65 -23
86 -57 180 -80 222 -6 10 -10 25 -10 33 0 8 -4 15 -10 15 -5 0 -10 6 -10 13 0
6 -6 23 -14 37 -7 14 -26 50 -42 80 -16 30 -34 59 -41 63 -7 4 -13 12 -13 18
0 5 -18 38 -41 71 -44 67 -109 198 -109 220 0 8 -4 18 -9 24 -5 5 -32 55 -61
112 -29 56 -57 102 -61 102 -5 0 -9 5 -9 10 0 6 -22 46 -50 90 -27 44 -50 82
-50 85 0 4 -13 20 -30 38 -16 18 -30 26 -30 19z"/>
<path d="M7953 6802 l-1043 -2 0 -305 0 -305 335 0 335 0 0 -1100 0 -1100 345
0 345 0 0 1100 0 1100 269 0 269 0 31 93 c88 272 162 509 159 515 -2 4 -472 6
-1045 4z"/>
<path d="M10050 5400 l0 -1410 340 0 340 0 0 368 0 367 98 97 97 96 310 -463
310 -464 373 -1 c204 0 372 3 372 6 0 3 -210 305 -467 671 l-467 666 230 223
c126 122 313 303 416 401 102 98 187 183 187 188 1 7 -137 8 -404 5 l-405 -5
-325 -318 -325 -319 0 651 0 651 -340 0 -340 0 0 -1410z"/>
<path d="M13483 6802 l-1073 -2 0 -305 0 -305 340 0 340 0 0 -1100 0 -1100
345 0 345 0 0 1100 0 1100 292 2 293 3 97 305 c53 167 96 304 95 305 -1 0
-485 -1 -1074 -3z"/>
<path d="M17133 6728 c4 -46 7 -680 7 -1410 l0 -1328 340 0 340 0 0 368 0 367
96 95 c75 75 97 92 104 80 5 -8 143 -215 308 -460 l299 -445 373 -3 c296 -2
371 0 367 10 -2 7 -69 105 -147 218 -253 363 -550 791 -664 954 l-110 159 264
258 c146 142 333 322 417 401 83 79 152 148 152 153 1 7 -137 8 -404 5 l-406
-5 -324 -318 -325 -319 0 651 0 651 -346 0 -347 0 6 -82z"/>
<path d="M9330 6778 c-76 -30 -160 -114 -188 -191 -33 -87 -30 -184 7 -264 37
-77 96 -137 170 -172 47 -22 70 -26 141 -26 103 0 170 27 239 96 24 24 56 69
70 99 22 46 26 69 26 145 0 84 -2 95 -34 153 -38 70 -90 120 -160 154 -67 33
-196 36 -271 6z"/>
<path d="M15625 6290 c-364 -16 -625 -127 -851 -362 -296 -310 -396 -754 -259
-1157 121 -357 434 -649 794 -741 153 -38 232 -44 456 -33 166 9 230 17 307
36 366 95 677 385 797 743 204 609 -126 1268 -734 1463 -160 52 -260 62 -510
51z m109 -620 c107 -27 169 -63 252 -145 108 -107 164 -239 164 -388 -1 -203
-119 -395 -300 -486 -101 -50 -171 -65 -285 -58 -290 16 -514 253 -515 544 0
150 54 280 162 387 84 82 146 119 250 146 95 25 176 25 272 0z"/>
<path d="M9120 4950 l0 -960 340 0 340 0 0 960 0 960 -340 0 -340 0 0 -960z"/>
<path d="M3482 5225 c-12 -5 -20 -15 -18 -22 5 -12 -8 -65 -24 -94 -4 -8 -16
-51 -25 -94 -15 -65 -17 -109 -12 -264 3 -102 10 -224 16 -271 60 -472 86
-604 158 -789 56 -145 107 -222 227 -344 78 -79 100 -96 111 -87 8 7 57 69
110 139 75 101 97 138 105 177 5 27 21 81 36 119 14 39 29 81 34 95 12 41 104
220 145 285 21 33 65 95 97 138 32 43 58 84 58 92 0 7 11 26 24 42 27 33 46
67 46 84 0 6 -14 -6 -31 -27 -42 -54 -57 -64 -100 -64 -20 0 -42 -7 -49 -15
-13 -16 -40 -21 -40 -7 0 17 45 80 78 109 21 17 34 34 30 38 -4 4 -58 -37
-120 -91 -242 -213 -292 -248 -391 -274 -210 -56 -397 130 -452 451 -25 142
-26 492 -2 586 23 87 21 102 -11 88z"/>
</g>
</svg>
